<?xml version="1.0" encoding="UTF-8" standalone="no"?>
<!-- Created with Inkscape (http://www.inkscape.org/) -->

<svg
   width="30.745926mm"
   height="30.779001mm"
   viewBox="0 0 30.745926 30.779001"
   version="1.1"
   id="svg1"
   xml:space="preserve"
   xmlns:inkscape="http://www.inkscape.org/namespaces/inkscape"
   xmlns:sodipodi="http://sodipodi.sourceforge.net/DTD/sodipodi-0.dtd"
   xmlns="http://www.w3.org/2000/svg"
   xmlns:svg="http://www.w3.org/2000/svg"><sodipodi:namedview
     id="namedview1"
     pagecolor="#505050"
     bordercolor="#eeeeee"
     borderopacity="1"
     inkscape:showpageshadow="0"
     inkscape:pageopacity="0"
     inkscape:pagecheckerboard="0"
     inkscape:deskcolor="#505050"
     inkscape:document-units="mm"><inkscape:page
       x="2.1273297e-20"
       y="0"
       width="30.745926"
       height="30.779001"
       id="page2"
       margin="0"
       bleed="0" /></sodipodi:namedview><defs
     id="defs1" /><g
     inkscape:label="Camada 1"
     inkscape:groupmode="layer"
     id="layer1"
     transform="translate(-85.614026,-120.54354)"><g
       id="g10"
       transform="translate(-4.8668329,-41.191601)"
       style="fill:#200815;fill-opacity:1"><g
         id="g1"
         transform="translate(-4.2631579,-16.105263)"
         inkscape:export-filename="g1.png"
         inkscape:export-xdpi="96"
         inkscape:export-ydpi="96"><path
           d="m 62.941726,125.66089 v 14.39786 c 0,3.38072 -2.736554,6.20461 -6.076759,6.28415 h -0.24146 -0.241461 c -3.340205,-0.0795 -6.579131,-2.44077 -6.579164,-5.78171 l -1.34e-4,-14.81658 -5.215382,-0.0839 0.08384,16.38653 c 0.01006,2.14774 0.764625,4.1364 2.173145,5.64778 0.563408,0.59659 1.126816,1.11364 1.770711,1.59092 2.293876,1.71024 5.070673,2.62503 8.008444,2.62503 2.93777,0 5.674324,-0.91479 8.008443,-2.62503 0.643895,-0.47728 1.207303,-0.99433 1.730468,-1.55115 1.448763,-1.51138 2.213388,-3.53981 2.213388,-5.64778 v -16.4263 z m 24.950929,10.34101 h -7.646253 c -1.328033,0 -2.414606,-1.07388 -2.414606,-2.38639 0,-1.31251 1.086573,-2.38639 2.414606,-2.38639 h 8.813312 c 0.885356,0.27841 1.489007,1.07388 1.489007,2.02843 2.315071,0.50777 4.174184,0.57442 5.8686,2.01315 0,-0.71592 -0.435669,-3.40521 -0.636953,-4.04158 -0.885356,-3.22162 -3.86337,-5.56823 -7.404792,-5.56823 h -8.129174 c -2.897527,0 -5.593837,1.51138 -7.002357,4.01708 -0.684139,1.19319 -1.046329,2.54548 -1.046329,3.93754 0,1.39206 0.36219,2.74434 1.046329,3.93754 0.321947,0.55682 0.684138,1.0341 1.086573,1.4716 1.52925,1.59093 3.662152,2.54548 5.915784,2.54548 h 7.646253 c 1.328033,0 2.374362,1.07387 2.374362,2.38639 0,1.31251 -1.046329,2.38638 -2.374362,2.38638 H 79.15983 c -0.845113,-0.27841 -1.448764,-1.07387 -1.448764,-2.02842 -2.592717,0.0331 -3.912165,-0.47973 -5.276518,-1.42106 0,0.71591 -0.156279,2.81311 0.0034,3.44948 0.925599,3.22163 3.903613,5.56824 7.445035,5.56824 h 8.008443 c 2.857284,0 5.553594,-1.51138 6.962114,-3.97731 0.724382,-1.23297 1.086573,-2.58525 1.086573,-3.97731 0,-1.39206 -0.362191,-2.74435 -1.086573,-3.93754 -1.40852,-2.46593 -4.10483,-4.01708 -6.962114,-4.01708 z m 47.728715,-0.83524 0.68414,1.51138 1.60973,3.46026 0.32195,0.63637 h 6.55968 v 5.56823 h -7.12309 c -3.90361,-0.55682 -6.84138,-3.77844 -6.84138,-7.51711 0,-3.77845 2.93777,-7.00007 6.84138,-7.55689 h 12.71693 v -5.56824 h -11.54987 c -3.62191,0 -7.00236,1.35229 -9.53769,3.77845 -2.61582,2.5057 -4.02435,5.80687 -4.02435,9.34668 0,3.5398 1.40853,6.84097 4.02435,9.3069 2.53533,2.46594 5.91578,3.77845 9.53769,3.77845 h 11.63035 v -11.13647 0 -5.60801 z m 19.75949,-9.54555 c 5.51711,11.49128 -1.42566,17.85498 0,26.29003 h 5.63408 v -26.29003 z"
           id="text2"
           style="font-weight:bold;font-size:12px;font-family:Aquire;-inkscape-font-specification:'Aquire, Bold';white-space:pre;fill:#000000;fill-opacity:1;stroke-width:3.33397"
           aria-label="USAGI"
           sodipodi:nodetypes="cscccsccsccsccscccsssccccsscsccssssccccsscscscccccccscccscscsccccccccccc"
           inkscape:label="text2" /><g
           id="g8"
           style="fill:#381932;fill-opacity:1"><g
             id="g6"
             style="fill:#381932;fill-opacity:1"><path
               id="path6"
               style="fill:#381932;fill-opacity:1;stroke-width:0.264583"
               inkscape:transform-center-x="0.03356166"
               inkscape:transform-center-y="0.33462826"
               d="m 86.293174,186.93914 -7.425806,6.66013 -5.076775,-8.58545 0.577084,9.95728 -9.87868,-1.38342 8.145806,5.75769 -7.240879,6.86045 8.165805,-2.36797 3.85667,11.60165 0.09147,0.31742 3.129708,9.36547 6.349975,19.04819 0.332724,1.03824 12.459223,2.32773 -0.996517,-3.11342 -13.468707,-40.41643 -1.142866,-3.40111 8.411212,-2.6907 -9.836643,-1.65347 z m -18.341066,22.37933 -20.280488,25.55563 -1.976933,2.5579 12.459223,2.32773 0.659033,-0.85295 13.381121,-16.93763 z"
               transform="matrix(0.5506738,-0.09901163,0.09528756,0.52996163,48.37439,30.654175)" /></g></g></g><g
         id="g2"
         transform="translate(-2.3684211,58.736842)"
         inkscape:export-filename="g2.svg"
         inkscape:export-xdpi="96"
         inkscape:export-ydpi="96"><path
           d="m 61.108255,170.59743 v 14.39786 c 0,3.38072 -2.736554,6.20461 -6.076759,6.28415 h -0.24146 -0.241461 c -3.340205,-0.0795 -6.579131,-2.44077 -6.579164,-5.78171 l -1.34e-4,-14.81658 -5.215382,-0.0839 0.08384,16.38653 c 0.01006,2.14774 0.764625,4.1364 2.173145,5.64778 0.563408,0.59659 1.126816,1.11364 1.770711,1.59092 2.293876,1.71024 5.070673,2.62503 8.008444,2.62503 2.93777,0 5.674324,-0.91479 8.00844,-2.62503 0.6439,-0.47728 1.20731,-0.99433 1.73047,-1.55115 1.44876,-1.51138 2.21339,-3.53981 2.21339,-5.64778 v -16.4263 z m 24.95093,10.34101 h -7.64625 c -1.32804,0 -2.41461,-1.07388 -2.41461,-2.38639 0,-1.31251 1.08657,-2.38639 2.41461,-2.38639 h 8.81331 c 0.88535,0.27841 1.48901,1.07388 1.48901,2.02843 2.31507,0.50777 4.17418,0.57442 5.86859,2.01315 0,-0.71592 -0.43566,-3.40521 -0.63695,-4.04158 -0.88535,-3.22162 -3.86337,-5.56823 -7.40479,-5.56823 h -8.12917 c -2.89753,0 -5.59384,1.51138 -7.00236,4.01708 -0.68414,1.19319 -1.04633,2.54548 -1.04633,3.93754 0,1.39206 0.36219,2.74434 1.04633,3.93754 0.32195,0.55682 0.68414,1.0341 1.08657,1.4716 1.52925,1.59093 3.66215,2.54548 5.91579,2.54548 h 7.64625 c 1.32803,0 2.37436,1.07387 2.37436,2.38639 0,1.31251 -1.04633,2.38638 -2.37436,2.38638 h -8.73283 c -0.84511,-0.27841 -1.44876,-1.07387 -1.44876,-2.02842 -2.59272,0.0331 -3.91216,-0.47973 -5.27652,-1.42106 0,0.71591 -0.15628,2.81311 0.003,3.44948 0.9256,3.22163 3.90362,5.56824 7.44504,5.56824 h 8.00844 c 2.85728,0 5.55359,-1.51138 6.96211,-3.97731 0.72439,-1.23297 1.08658,-2.58525 1.08658,-3.97731 0,-1.39206 -0.36219,-2.74435 -1.08658,-3.93754 -1.40852,-2.46593 -4.10483,-4.01708 -6.96211,-4.01708 z m 47.728705,-0.83524 0.68414,1.51138 1.60973,3.46026 0.32195,0.63637 h 6.55968 v 5.56823 h -7.12309 c -3.90361,-0.55682 -6.84138,-3.77844 -6.84138,-7.51711 0,-3.77845 2.93777,-7.00007 6.84138,-7.55689 h 12.71693 v -5.56824 h -11.54987 c -3.62191,0 -7.00236,1.35229 -9.53769,3.77845 -2.61582,2.5057 -4.02435,5.80687 -4.02435,9.34668 0,3.5398 1.40853,6.84097 4.02435,9.3069 2.53533,2.46594 5.91578,3.77845 9.53769,3.77845 h 11.63035 v -11.13647 0 -5.60801 z m 19.75949,-9.54555 c 5.51711,11.49128 -1.42566,17.85498 0,26.29003 h 5.63408 v -26.29003 z"
           id="text2-2"
           style="font-weight:bold;font-size:12px;font-family:Aquire;-inkscape-font-specification:'Aquire, Bold';white-space:pre;fill:#fff3e6;fill-opacity:1;stroke-width:3.33397"
           aria-label="USAGI"
           sodipodi:nodetypes="cscccsccsccsccscccsssccccsscsccssssccccsscscscccccccscccscscsccccccccccc"
           inkscape:label="text2" /><g
           id="g8-21"
           style="fill:#381932;fill-opacity:1"
           transform="translate(-1.8334713,44.936541)"><g
             id="g6-6"
             style="fill:#381932;fill-opacity:1"><path
               id="path6-8"
               style="fill:#381932;fill-opacity:1;stroke-width:0.264583"
               inkscape:transform-center-x="0.03356166"
               inkscape:transform-center-y="0.33462826"
               d="m 86.293174,186.93914 -7.425806,6.66013 -5.076775,-8.58545 0.577084,9.95728 -9.87868,-1.38342 8.145806,5.75769 -7.240879,6.86045 8.165805,-2.36797 3.85667,11.60165 0.09147,0.31742 3.129708,9.36547 6.349975,19.04819 0.332724,1.03824 12.459223,2.32773 -0.996517,-3.11342 -13.468707,-40.41643 -1.142866,-3.40111 8.411212,-2.6907 -9.836643,-1.65347 z m -18.341066,22.37933 -20.280488,25.55563 -1.976933,2.5579 12.459223,2.32773 0.659033,-0.85295 13.381121,-16.93763 z"
               transform="matrix(0.5506738,-0.09901163,0.09528756,0.52996163,48.37439,30.654175)" /></g></g></g><g
         id="g8-2"
         style="fill:#381932;fill-opacity:1"
         transform="translate(-2.8386006,2.6596748)"
         inkscape:export-filename="g8-2.png"
         inkscape:export-xdpi="96"
         inkscape:export-ydpi="96"><g
           id="g6-7"
           style="fill:#381932;fill-opacity:1"
           transform="translate(-2.8421053,37.894737)"><path
             id="path6-6"
             style="fill:#381932;fill-opacity:1;stroke-width:0.264583"
             inkscape:transform-center-x="0.03356166"
             inkscape:transform-center-y="0.33462826"
             d="m 86.293174,186.93914 -7.425806,6.66013 -5.076775,-8.58545 0.577084,9.95728 -9.87868,-1.38342 8.145806,5.75769 -7.240879,6.86045 8.165805,-2.36797 3.85667,11.60165 0.09147,0.31742 3.129708,9.36547 6.349975,19.04819 0.332724,1.03824 12.459223,2.32773 -0.996517,-3.11342 -13.468707,-40.41643 -1.142866,-3.40111 8.411212,-2.6907 -9.836643,-1.65347 z m -18.341066,22.37933 -20.280488,25.55563 -1.976933,2.5579 12.459223,2.32773 0.659033,-0.85295 13.381121,-16.93763 z"
             transform="matrix(0.5506738,-0.09901163,0.09528756,0.52996163,48.37439,30.654175)" /></g></g></g></g></svg>
